<svg width="36" height="28" viewBox="0 0 36 28" fill="none" xmlns="http://www.w3.org/2000/svg">
<path fill-rule="evenodd" clip-rule="evenodd" d="M31.5 2.76416H4.5C3.90326 2.76416 3.33097 3.00121 2.90901 3.42317C2.48705 3.84513 2.25 4.41742 2.25 5.01416V23.0142C2.25 23.6109 2.48705 24.1832 2.90901 24.6052C3.33097 25.0271 3.90326 25.2642 4.5 25.2642H31.5C32.0967 25.2642 32.669 25.0271 33.091 24.6052C33.5129 24.1832 33.75 23.6109 33.75 23.0142V5.01416C33.75 4.41742 33.5129 3.84513 33.091 3.42317C32.669 3.00121 32.0967 2.76416 31.5 2.76416ZM4.5 0.51416C3.30653 0.51416 2.16193 0.988266 1.31802 1.83218C0.474106 2.67609 0 3.82069 0 5.01416L0 23.0142C0 24.2076 0.474106 25.3522 1.31802 26.1961C2.16193 27.0401 3.30653 27.5142 4.5 27.5142H31.5C32.6935 27.5142 33.8381 27.0401 34.682 26.1961C35.5259 25.3522 36 24.2076 36 23.0142V5.01416C36 3.82069 35.5259 2.67609 34.682 1.83218C33.8381 0.988266 32.6935 0.51416 31.5 0.51416H4.5Z" fill="#CCCCCC"/>
<path d="M24.75 8.38916C24.75 8.09079 24.8685 7.80464 25.0795 7.59367C25.2905 7.38269 25.5766 7.26416 25.875 7.26416H30.375C30.6734 7.26416 30.9595 7.38269 31.1705 7.59367C31.3815 7.80464 31.5 8.09079 31.5 8.38916V10.6392C31.5 10.9375 31.3815 11.2237 31.1705 11.4347C30.9595 11.6456 30.6734 11.7642 30.375 11.7642H25.875C25.5766 11.7642 25.2905 11.6456 25.0795 11.4347C24.8685 11.2237 24.75 10.9375 24.75 10.6392V8.38916ZM2.25 16.2642H33.75V20.7642H2.25V16.2642Z" fill="#CCCCCC"/>
</svg>
