<svg width="16" height="16" viewBox="0 0 16 16" fill="none" xmlns="http://www.w3.org/2000/svg"><g clip-path="url(#clip0_1046_10941)"><path d="M0.666504 2.33333V10.3333C0.666504 10.687 0.80698 11.0261 1.05703 11.2761C1.30708 11.5262 1.64622 11.6667 1.99984 11.6667H5.33317L7.99984 15L10.6665 11.6667H13.9998C14.3535 11.6667 14.6926 11.5262 14.9426 11.2761C15.1927 11.0261 15.3332 10.687 15.3332 10.3333V2.33333C15.3332 1.97971 15.1927 1.64057 14.9426 1.39052C14.6926 1.14048 14.3535 1 13.9998 1H1.99984C1.64622 1 1.30708 1.14048 1.05703 1.39052C0.80698 1.64057 0.666504 1.97971 0.666504 2.33333V2.33333Z" stroke="#798A9A" stroke-width="1.5" stroke-miterlimit="10" stroke-linecap="square"></path> <path d="M7.55888 5.30249C7.55888 4.74249 7.89488 4.42516 8.46421 4.42516C9.02421 4.42516 9.35088 4.75183 9.35088 5.30249C9.35088 6.14249 8.64155 6.31983 7.66155 6.31983H7.24155L7.28821 7.90649H8.43621L8.47355 7.18783C9.71488 7.18783 10.6202 6.57183 10.6202 5.31183C10.6202 4.04249 9.73355 3.33316 8.46421 3.33316C7.10155 3.33316 6.29888 4.17316 6.32688 5.30249H7.55888ZM8.65088 9.37183C8.65088 8.93316 8.31488 8.60649 7.85755 8.60649C7.38155 8.60649 7.04555 8.93316 7.04555 9.37183C7.04555 9.81049 7.38155 10.1372 7.85755 10.1372C8.31488 10.1372 8.65088 9.81049 8.65088 9.37183Z" fill="#798A9A"></path></g> <defs><clipPath id="clip0_1046_10941"><rect width="16" height="16" fill="white"></rect></clipPath></defs></svg>
