<svg width="34" height="34" viewBox="0 0 34 34" fill="none" xmlns="http://www.w3.org/2000/svg">
<path d="M0.5 15.1808H4.16667V18.8475H0.5V15.1808ZM15.1667 4.18083H18.8333V11.5142H15.1667V4.18083ZM11.5 15.1808H18.8333V22.5142H15.1667V18.8475H11.5V15.1808ZM22.5 15.1808H26.1667V18.8475H29.8333V15.1808H33.5V18.8475H29.8333V22.5142H33.5V29.8475H29.8333V33.5142H26.1667V29.8475H18.8333V33.5142H15.1667V26.1808H22.5V22.5142H26.1667V18.8475H22.5V15.1808ZM29.8333 29.8475V22.5142H26.1667V29.8475H29.8333ZM22.5 0.51416H33.5V11.5142H22.5V0.51416ZM26.1667 4.18083V7.84749H29.8333V4.18083H26.1667ZM0.5 0.51416H11.5V11.5142H0.5V0.51416ZM4.16667 4.18083V7.84749H7.83333V4.18083H4.16667ZM0.5 22.5142H11.5V33.5142H0.5V22.5142ZM4.16667 26.1808V29.8475H7.83333V26.1808H4.16667Z" fill="#CCCCCC"/>
</svg>
