<svg width="40" height="40" viewBox="0 0 40 40" fill="none" xmlns="http://www.w3.org/2000/svg">
<path d="M34.7222 8.22224C32.2044 7.55026 29.7447 6.67708 27.3667 5.61113C25.0272 4.59626 22.7687 3.40389 20.6111 2.04446L20 1.66669L19.4 2.05558C17.2424 3.415 14.984 4.60737 12.6445 5.62224C10.2626 6.68496 7.79907 7.55442 5.27779 8.22224L4.44446 8.43335V17.7C4.44446 32.5778 19.4778 38.1445 19.6222 38.2L20 38.3334L20.3778 38.2C20.5333 38.2 35.5556 32.5889 35.5556 17.7V8.43335L34.7222 8.22224ZM33.3333 17.7C33.3333 29.9222 22.2222 35.0445 20 35.9556C17.7778 35.0445 6.66668 29.9111 6.66668 17.7V10.1556C9.01054 9.48176 11.3049 8.64643 13.5333 7.65558C15.7619 6.69223 17.9225 5.57856 20 4.32224C22.0776 5.57856 24.2381 6.69223 26.4667 7.65558C28.6951 8.64643 30.9895 9.48176 33.3333 10.1556V17.7Z" fill="white"/>
<path d="M12.0888 18.7444C11.8763 18.5624 11.6029 18.4673 11.3232 18.4781C11.0436 18.4889 10.7783 18.6048 10.5804 18.8027C10.3826 19.0006 10.2666 19.2658 10.2558 19.5455C10.245 19.8251 10.3402 20.0985 10.5222 20.3111L17.1888 26.9778L29.3333 15.3C29.5455 15.0937 29.667 14.8116 29.6712 14.5157C29.6753 14.2198 29.5618 13.9344 29.3555 13.7222C29.1492 13.51 28.8671 13.3885 28.5712 13.3843C28.2753 13.3802 27.9899 13.4937 27.7777 13.7L17.2555 23.9111L12.0888 18.7444Z" fill="white"/>
</svg>
