<svg width="47" height="48" viewBox="0 0 47 48" fill="none" xmlns="http://www.w3.org/2000/svg">
<path d="M35.4231 15.0142H11.5769C9.60144 15.0142 8 16.6558 8 18.6808V33.3475C8 35.3725 9.60144 37.0142 11.5769 37.0142H35.4231C37.3986 37.0142 39 35.3725 39 33.3475V18.6808C39 16.6558 37.3986 15.0142 35.4231 15.0142Z" stroke="#CCCCCC" stroke-width="2" stroke-linejoin="round"/>
<path d="M35 15.1247V12.8328C34.9998 12.2707 34.879 11.7155 34.6461 11.2069C34.4132 10.6984 34.074 10.2489 33.6527 9.8906C33.2314 9.53232 32.7384 9.27405 32.2088 9.13422C31.6793 8.9944 31.1262 8.97646 30.5892 9.08169L11.0198 12.5158C10.17 12.6823 9.40332 13.1485 8.85203 13.8339C8.30075 14.5194 7.99941 15.3812 8 16.2707V20.0142" stroke="#CCCCCC" stroke-width="2" stroke-linejoin="round"/>
<path d="M31.5 28.0142C31.0055 28.0142 30.5222 27.8675 30.1111 27.5928C29.7 27.3181 29.3795 26.9277 29.1903 26.4709C29.0011 26.0141 28.9516 25.5114 29.048 25.0264C29.1445 24.5415 29.3826 24.096 29.7322 23.7464C30.0819 23.3968 30.5273 23.1587 31.0123 23.0622C31.4972 22.9657 31.9999 23.0152 32.4567 23.2045C32.9135 23.3937 33.304 23.7141 33.5787 24.1252C33.8534 24.5364 34 25.0197 34 25.5142C34 26.1772 33.7366 26.8131 33.2678 27.2819C32.7989 27.7508 32.163 28.0142 31.5 28.0142Z" fill="#CCCCCC"/>
</svg>
